<svg xmlns="http://www.w3.org/2000/svg" width="18.94" height="16.969"><path d="M1721.53 85.978a2.073 2.073 0 1 1 0-4.147 2.056 2.056 0 0 1 1.46.6 2.03 2.03 0 0 1 .61 1.466 2.071 2.071 0 0 1-2.07 2.081zm0-2.963a.889.889 0 1 0 .34 1.71.9.9 0 0 0 .55-.824.92.92 0 0 0-.26-.629.9.9 0 0 0-.63-.257zm8.39 2.963a2.045 2.045 0 0 1-1.46-.607 2.068 2.068 0 0 1 1.46-3.54 1.953 1.953 0 0 1 1.47.6 2.085 2.085 0 0 1-.67 3.383 2.093 2.093 0 0 1-.8.164zm0-2.963a.978.978 0 0 0-.82.548.887.887 0 0 0 1.16 1.161.891.891 0 0 0 .29-1.452.9.9 0 0 0-.63-.257zm-11.27.164a.562.562 0 0 1-.25-.056.59.59 0 0 1-.29-.787 3.686 3.686 0 0 1 3.05-2.151l-1.05-5.391a.591.591 0 1 1 1.16-.228l1.09 5.578h9.43l1.8-6.771h-13.3a4.346 4.346 0 0 1-4.28-3.693.587.587 0 0 1 .49-.673.6.6 0 0 1 .68.5 3.159 3.159 0 0 0 3.11 2.682h14.07a.582.582 0 0 1 .47.232.594.594 0 0 1 .11.513l-2.13 7.956a.59.59 0 0 1-.57.44h-10.36a.03.03 0 0 0-.02 0 2.66 2.66 0 0 0-2.68 1.51.586.586 0 0 1-.53.338z" transform="translate(-1716 -69)" style="fill:#243f4d;fill-rule:evenodd"/></svg>