<svg xmlns="http://www.w3.org/2000/svg" width="17.87" height="15.531"><path d="M1648.91 86.245a.731.731 0 0 1-.28-.056c-.35-.15-8.65-3.749-8.65-10.76a28.181 28.181 0 0 0 13.05-4.707 4.817 4.817 0 0 1 4.81 4.684c0 7.034-8.29 10.634-8.65 10.783a.7.7 0 0 1-.28.056zm-4.11-14.138a3.427 3.427 0 0 0-3.41 3.346c0 5.407 6.13 8.662 7.52 9.334 1.4-.672 7.52-3.93 7.52-9.358a3.406 3.406 0 0 0-6.81.024.709.709 0 0 1-.71.669.694.694 0 0 1-.7-.669 3.427 3.427 0 0 0-3.41-3.347z" transform="translate(-1639.97 -70.719)" style="fill:#243f4d;fill-rule:evenodd"/></svg>